<?xml version="1.0" encoding="utf-8"?><!DOCTYPE svg PUBLIC "-//W3C//DTD SVG 1.1//EN" "http://www.w3.org/Graphics/SVG/1.1/DTD/svg11.dtd"><svg version="1.1" xmlns="http://www.w3.org/2000/svg" xmlns:xlink="http://www.w3.org/1999/xlink" x="0px" y="0px" viewBox="6.534 0.025 87.127 100" enable-background="new 6.534 0.025 87.127 100" xml:space="preserve"><g><g><polygon points="93.661,100.025 6.534,100.025 10.854,92.389 88.252,92.389 		"></polygon><path d="M84.768,87.476l2.209,3.118H76.389L49.114,79.291l0,0L24.727,89.314l0.005,0.005l-3.1,1.274h-9.766l1.826-3.225
			l7.487-0.366V70.464c5.553-4.562,20.442-6.608,27.792-6.519v0.022l0.413-0.017h0.048l0.425,0.017v-0.022
			c6.792-0.084,20.891,1.784,26.99,5.925l0.137,17.288L84.768,87.476z M72.494,81.965v-9.426c0-0.318-0.154-0.604-0.418-0.813
			c-0.253-0.211-0.611-0.336-1.006-0.336c-0.785,0-1.418,0.516-1.418,1.149v9.426c0,0.318,0.16,0.604,0.411,0.813
			c0.258,0.204,0.611,0.334,1.007,0.334C71.86,83.112,72.494,82.599,72.494,81.965z M65.163,79.847v-10.2
			c0-0.341-0.16-0.651-0.412-0.873c-0.256-0.229-0.61-0.365-1.005-0.365c-0.791,0-1.426,0.558-1.426,1.238v10.2
			c0,0.347,0.156,0.657,0.42,0.878c0.251,0.229,0.611,0.365,1.006,0.365C64.527,81.092,65.163,80.534,65.163,79.847z M57.832,78.248
			V68.052c0-0.341-0.155-0.654-0.418-0.881c-0.251-0.227-0.611-0.364-1.005-0.364c-0.784,0-1.42,0.557-1.42,1.246v10.196
			c0,0.341,0.162,0.652,0.413,0.873c0.257,0.229,0.611,0.366,1.006,0.366C57.199,79.487,57.832,78.93,57.832,78.248z M50.502,77.441
			v-9.743c0-0.327-0.162-0.628-0.413-0.844c-0.257-0.216-0.611-0.348-1.005-0.348c-0.79,0-1.423,0.534-1.423,1.191v9.743
			c0,0.321,0.155,0.62,0.419,0.837c0.251,0.216,0.611,0.348,1.005,0.348C49.867,78.626,50.502,78.092,50.502,77.441z M43.171,78.398
			v-10.2c0-0.347-0.155-0.657-0.419-0.877c-0.251-0.229-0.61-0.365-1.005-0.365c-0.784,0-1.418,0.556-1.418,1.244v10.199
			c0,0.342,0.161,0.652,0.413,0.873c0.258,0.229,0.611,0.366,1.005,0.366C42.536,79.638,43.171,79.08,43.171,78.398z M35.84,79.847
			v-10.2c0-0.341-0.162-0.651-0.414-0.873c-0.257-0.229-0.61-0.365-1.005-0.365c-0.79,0-1.424,0.558-1.424,1.238v10.2
			c0,0.347,0.155,0.657,0.419,0.878c0.251,0.229,0.609,0.365,1.005,0.365C35.206,81.092,35.84,80.534,35.84,79.847z M28.509,81.965
			v-9.426c0-0.318-0.157-0.604-0.419-0.813c-0.251-0.211-0.611-0.336-1.005-0.336c-0.784,0-1.418,0.516-1.418,1.149v9.426
			c0,0.318,0.161,0.604,0.413,0.813c0.257,0.204,0.609,0.334,1.005,0.334C27.874,83.112,28.509,82.599,28.509,81.965z"></path><path d="M79.269,66.278c0.498,1.467,0.323,2.664,0.113,3.327c-0.329-0.316-0.701-0.627-1.113-0.929
			c-6.611-4.857-22.243-6.676-28.838-6.521c-0.019,0-0.03,0-0.048,0c-7.133-0.155-23.633,1.842-29.666,7.192
			c0,0-0.774-1.487-0.162-3.064c1.173-1.022,2.824-1.991,4.925-2.884c7.409-3.154,18.94-4.639,24.662-4.53v0.012
			c0.078-0.006,0.156-0.006,0.258-0.006c0.012,0,0.023,0,0.036,0c0.089,0,0.167,0,0.245,0.006V58.87
			c4.787-0.091,14.674,0.963,22.379,3.652C75.264,63.641,77.694,64.904,79.269,66.278z"></path><path d="M74.296,53.28c-5.021-5.613-18.856-8.071-25.476-7.87c-0.006,0-0.019,0-0.023,0c-6.081-0.173-20.223,2.006-25.441,7.848
			c-0.006,0.012-0.019,0.016-0.024,0.028c-0.349-2.78,0.7-4.141,0.7-4.141c1.359-1.318,3.292-2.526,5.756-3.609
			c6.512-2.849,14.788-3.974,18.81-3.878v0.019c0.065-0.006,0.125-0.012,0.215-0.012c0.012,0,0.024,0,0.03,0
			c0.065,0,0.125,0.006,0.186,0.012v-0.019c3.944-0.095,12.184,1.005,18.701,3.83c2.872,1.246,5.033,2.664,6.408,4.212
			C74.675,51.181,74.415,52.717,74.296,53.28z"></path><path d="M73.098,54.641v6.343c-0.15-0.056-0.298-0.107-0.449-0.161c-1.711-0.598-3.53-1.113-5.373-1.562
			c0.012-0.031,0.019-0.061,0.019-0.097v-5.027c0-0.341-0.502-0.609-1.118-0.609c-0.623,0-1.126,0.269-1.126,0.609v4.627
			c-1.204-0.25-2.407-0.473-3.586-0.658c0.025-0.048,0.037-0.097,0.037-0.15v-5.47c0-0.364-0.502-0.665-1.119-0.665
			c-0.622,0-1.125,0.301-1.125,0.665v5.291c-1.233-0.174-2.431-0.312-3.562-0.421c0.012-0.035,0.02-0.07,0.02-0.106v-5.821
			c0-0.396-0.503-0.715-1.127-0.715c-0.615,0-1.119,0.319-1.119,0.715v5.756c-1.35-0.085-2.555-0.12-3.561-0.106
			c0.012-0.032,0.012-0.063,0.012-0.093v-6.051c0-0.407-0.502-0.735-1.119-0.735c-0.622,0-1.126,0.328-1.126,0.735v6.051
			c0,0.029,0.006,0.066,0.019,0.097c-1.065,0.018-2.262,0.084-3.561,0.187v-5.756c0-0.396-0.502-0.714-1.126-0.714
			c-0.622,0-1.124,0.318-1.124,0.714v5.828c0,0.046,0.005,0.09,0.023,0.138c-1.143,0.125-2.339,0.281-3.566,0.466v-5.457
			c0-0.365-0.503-0.664-1.125-0.664c-0.616,0-1.119,0.299-1.119,0.664v5.47c0,0.12,0.055,0.234,0.156,0.328
			c-1.233,0.215-2.471,0.468-3.704,0.742v-4.89c0-0.341-0.502-0.609-1.119-0.609c-0.622,0-1.125,0.269-1.125,0.609v5.027
			c0,0.133,0.078,0.258,0.216,0.354c-1.95,0.502-3.848,1.096-5.602,1.771v-7.07c4.722-4.913,17.361-7.121,23.532-7.018v0.019
			c0.096-0.006,0.192-0.012,0.311-0.012h0.066l0.359,0.018v-0.023C55.547,47.105,68.754,49.487,73.098,54.641z"></path><polygon points="71.674,90.594 26.36,90.594 49.048,81.258 		"></polygon><path d="M53.05,24.101c6.362,2.299,11.378,9.229,13.879,19.121c-6.025-2.292-13.669-3.496-18.031-3.351c-0.018,0-0.035,0-0.054,0
			c-0.012,0-0.019,0-0.03,0c-3.777-0.126-11.616,0.851-18.21,3.399c2.214-10.162,7.463-17.361,14.225-19.402
			C47.526,23.047,50.37,23.132,53.05,24.101z"></path><path d="M52.602,13.73v8.343c-2.363-0.671-4.811-0.744-7.187-0.216v-7.905c0.496-0.449,1.024-0.796,1.568-1.024
			c1.203-0.521,2.52-0.539,3.92-0.053C51.621,13.125,52.208,13.466,52.602,13.73z"></path><path d="M48.838,0.025c0.389,0.946,1.119,3.722,1.34,11.419c-0.903-0.167-1.789-0.157-2.628,0.047
			C47.503,5.172,48.258,1.331,48.838,0.025z"></path></g></g></svg>